<svg width="40" height="40" viewBox="0 0 40 40" fill="none" xmlns="http://www.w3.org/2000/svg">
<circle cx="20" cy="20" r="20" fill="white" fill-opacity="0.25"/>
<g clip-path="url(#clip0_0_1)">
<path d="M9.64189 14.25C9.29527 14.25 9 13.975 9 13.625C9 13.275 9.28243 13 9.64189 13H13.7885C14.1223 13 14.3919 13.2375 14.4176 13.55L14.8027 15.4H27.3324C27.8074 15.4 28.0899 15.8 27.9486 16.2375L26.1899 21.4375C26.0872 21.7375 25.7662 21.9875 25.4709 21.9875H16.1764L16.4331 23.2H25.3426C25.6892 23.2 25.9845 23.475 25.9845 23.825C25.9845 24.175 25.702 24.45 25.3426 24.45H15.9068C15.6115 24.45 15.3419 24.25 15.2777 23.95L13.275 14.25H9.64189ZM17.6142 25.275C18.3845 25.275 19.0135 25.8875 19.0135 26.6375C19.0135 27.3875 18.3845 28 17.6142 28C16.8439 28 16.2149 27.3875 16.2149 26.6375C16.2149 25.8875 16.8439 25.275 17.6142 25.275ZM23.6736 25.275C24.4439 25.275 25.073 25.8875 25.073 26.6375C25.073 27.3875 24.4439 28 23.6736 28C22.9034 28 22.2743 27.3875 22.2743 26.6375C22.2743 25.8875 22.9034 25.275 23.6736 25.275Z" fill="white"/>
</g>
<defs>
<clipPath id="clip0_0_1">
<rect width="19" height="15" fill="white" transform="translate(9 13)"/>
</clipPath>
</defs>
</svg>
