<svg width="37" height="38" viewBox="0 0 37 38" fill="none" xmlns="http://www.w3.org/2000/svg">
<g clip-path="url(#clip0_161_359)">
<path d="M18.5 38C28.7173 38 37 29.4934 37 19C37 8.50659 28.7173 0 18.5 0C8.28273 0 0 8.50659 0 19C0 29.4934 8.28273 38 18.5 38Z" fill="#F9F0E3"/>
<path d="M25.1291 16.3162H11.8168C11.2849 16.3162 10.8533 15.8729 10.8533 15.3267C10.8533 14.7804 11.2849 14.3371 11.8168 14.3371H25.1291C25.661 14.3371 26.0926 14.7804 26.0926 15.3267C26.0926 15.8729 25.661 16.3162 25.1291 16.3162Z" fill="#014545"/>
<path d="M25.1291 23.6629H11.8168C11.2849 23.6629 10.8533 23.2196 10.8533 22.6733C10.8533 22.1271 11.2849 21.6838 11.8168 21.6838H25.1291C25.661 21.6838 26.0926 22.1271 26.0926 22.6733C26.0926 23.2196 25.661 23.6629 25.1291 23.6629Z" fill="#014545"/>
</g>
<defs>
<clipPath id="clip0_161_359">
<rect width="37" height="38" fill="white"/>
</clipPath>
</defs>
</svg>
