<svg width="185" height="30" viewBox="0 0 185 30" fill="none" xmlns="http://www.w3.org/2000/svg">
<path d="M15.5713 0L18.939 10.3647H29.8371L21.0204 16.7705L24.3881 27.1353L15.5713 20.7295L6.75451 27.1353L10.1222 16.7705L1.30544 10.3647H12.2036L15.5713 0Z" fill="#A1C8AB"/>
<path d="M54.1426 0L57.5103 10.3647H68.4084L59.5916 16.7705L62.9594 27.1353L54.1426 20.7295L45.3258 27.1353L48.6935 16.7705L39.8767 10.3647H50.7749L54.1426 0Z" fill="#A1C8AB"/>
<path d="M92.7141 0L96.0818 10.3647H106.98L98.1632 16.7705L101.531 27.1353L92.7141 20.7295L83.8973 27.1353L87.265 16.7705L78.4483 10.3647H89.3464L92.7141 0Z" fill="#A1C8AB"/>
<path d="M131.286 0L134.653 10.3647H145.551L136.735 16.7705L140.102 27.1353L131.286 20.7295L122.469 27.1353L125.837 16.7705L117.02 10.3647H127.918L131.286 0Z" fill="#A1C8AB"/>
<path d="M169.857 0L173.225 10.3647H184.123L175.306 16.7705L178.674 27.1353L169.857 20.7295L161.04 27.1353L164.408 16.7705L155.591 10.3647H166.489L169.857 0Z" fill="#A1C8AB"/>
</svg>
